<?xml version="1.0" encoding="utf-8"?>
<!-- Generator: Adobe Illustrator 22.0.1, SVG Export Plug-In . SVG Version: 6.00 Build 0)  -->
<svg version="1.1" id="Layer_1" xmlns="http://www.w3.org/2000/svg" xmlns:xlink="http://www.w3.org/1999/xlink" x="0px" y="0px"
	 viewBox="0 0 512 512" style="enable-background:new 0 0 512 512;" xml:space="preserve">
<g id="qJSCik.tif">
	<g>
		<path style="fill:#FECC73;" d="M427.2,168.4c0,1.3,0,2.7,0,4c-0.3,0.7-0.6,1.3-0.9,2c0,1,0,2,0,3c0,0.7,0,1.3,0,2c0,0.7,0,1.3,0,2
			c0.3,0.7,0.6,1.3,0.9,2c0,1.7,0,3.3,0,5c-0.6,2.5-1.6,5-1.8,7.5c-2.4,23.9-9.9,46.2-21.8,67c-17,29.9-41,52.6-71.3,68.9
			c-18.1,9.8-27.4,25.3-28.8,45.7c-8.6,0-17.2-0.1-25.8-0.1c1.4-8.1,2.7-16.3,4.2-24.4c10-55,20-110,30-164.9
			c1.1-5.9-1.5-10.7-6.3-11.6c-5.8-1.1-9.2,1.5-11,7.9c-1.1,4-2.7,7.9-4.1,11.8c-10.2,1-18,7.1-25.8,13c-8.9,6.7-19.9,6.7-28.9,0
			c-7.8-5.9-15.5-11.9-25.8-13c-0.7-1.4-1.6-2.8-2-4.3c-0.8-3-1.2-6.2-2.1-9.2c-1.5-4.7-5.2-7.1-9.4-6.2c-4.6,1-6.7,4-6.6,8.6
			c0,1.3,0,2.7,0.2,4c6.5,35.5,13,71,19.4,106.5c2.2,12.4,4.2,24.8,6.3,37.2c-8.8-9.6-18.6-18.5-26.3-29
			c-13.5-18.4-22.3-39.4-27-61.8c-3.3-15.8-7-31.7-8.2-47.7c-1.5-21.9-0.6-44,3.6-65.8c5-25.8,13.6-50.1,27-72.7
			c8.3-13.9,18.8-25.8,31.3-36c3.8-3.1,7.8-6.3,12.2-8.3c9.1-4.1,18.6-7.5,28-11.2c7.3,0.7,14.6,0.8,21.7,2.1
			c44,7.7,80.6,28.4,108.9,63.2c19.9,24.4,32.3,52.2,36.9,83.5C425.3,155.5,426.3,162,427.2,168.4z"/>
		<path style="fill:#FEFEFE;" d="M427.2,168.4c-1-6.5-1.9-12.9-2.9-19.4c-4.5-31.3-17-59.1-36.9-83.5C359.2,30.8,322.6,10,278.6,2.3
			c-7.2-1.2-14.5-1.4-21.7-2.1c-16-0.7-31.8,0.9-47.2,4.9c-53.9,14.1-93.1,46.5-117.6,96.3c-14.7,29.8-19.3,61.6-15.5,94.7
			c3.1,26.9,12,51.5,26.4,74.2c16.7,26.1,38.9,46.4,66.2,61.1c18.4,9.9,27.8,25.4,29.2,46.1c-0.2,8.9-0.3,17.8-0.5,26.8
			c-6.8,1.4-10.9,7-8,12.3c1.6,2.9,5.5,4.6,8.3,6.8c-0.1,5-0.2,9.9-0.3,14.9c-6.1,1.4-9,4.7-8.7,10.1c0.2,4.9,3.3,7.9,8.8,8.9
			c1.4,6.8,5,11.7,11.4,14.7c5.6,2.6,10.8,5.8,16.5,8c5.3,2.1,8.2,5,7.1,11c-0.2,1.3,0.5,2.8,0.8,4.3c0.7,8.1,6.4,11.9,13.1,14.7
			c-57.7,0-115.5,0-173.2,0c0-170.2,0-340.4,0-510.7c117.8,0,235.7,0,353.5,0C427.2,55.6,427.2,112,427.2,168.4z"/>
		<path style="fill:#FEFEFE;" d="M303.6,377.5c1.3-20.4,10.6-36,28.8-45.7c30.2-16.3,54.2-39,71.3-68.9c11.9-20.8,19.4-43.1,21.8-67
			c0.3-2.5,1.2-5,1.8-7.5c0,107.1,0,214.2,0,321.7c-57.4,0-114.9,0-172.3,0c9.8-3.5,14.2-10.6,13.9-20.9c-0.1-2,0-4,0-6
			c8.8-4.3,17.7-8.3,26.3-12.9c6.3-3.3,8.8-9.1,8.6-16.2c-0.2-5.7-1.5-12,6-14.7c3.5-3.2,5.7-6.9,3.9-11.8c-1.7-4.4-5.1-6.3-9.7-6.3
			c-0.1-1.9-0.4-3.9-0.1-5.8c0.4-3,1.3-5.9,2-8.9c5.6-1.7,9-6,8.5-10.6c-0.6-5.2-3.9-8-10.4-8.6C303.8,384,303.7,380.8,303.6,377.5z
			"/>
		<path style="fill:#95A4B8;" d="M268.9,483.1c0,2-0.1,4,0,6c0.3,10.3-4.1,17.4-13.9,20.9c-2.7,0-5.3,0-8,0
			c-6.7-2.9-12.3-6.6-13.1-14.7c0-2.1,0.3-4.3,0.1-6.4c-0.5-4.6,1.3-6,5.8-5.8c9,0.3,18.1,0.1,27.1,0
			C267.6,483.1,268.2,483.1,268.9,483.1z"/>
		<path style="fill:#FEE4B6;" d="M426.4,177.4c0-1,0-2,0-3c0.3,0,0.6,0,0.9,0c0,1,0,2,0,3C426.9,177.4,426.6,177.4,426.4,177.4z"/>
		<path style="fill:#FEF4E2;" d="M427.2,183.4c-0.3-0.7-0.6-1.3-0.9-2c0.3,0,0.6,0,0.9,0C427.2,182,427.2,182.7,427.2,183.4z"/>
		<path style="fill:#FEEFD4;" d="M427.2,181.4c-0.3,0-0.6,0-0.9,0c0-0.7,0-1.3,0-2c0.3,0,0.6,0,0.9,0
			C427.2,180,427.2,180.7,427.2,181.4z"/>
		<path style="fill:#FEE9C3;" d="M427.2,179.4c-0.3,0-0.6,0-0.9,0c0-0.7,0-1.3,0-2c0.3,0,0.6,0,0.9,0
			C427.2,178,427.2,178.7,427.2,179.4z"/>
		<path style="fill:#FEECCA;" d="M427.2,174.4c-0.3,0-0.6,0-0.9,0c0.3-0.7,0.6-1.3,0.9-2C427.2,173.1,427.2,173.7,427.2,174.4z"/>
		<path style="fill:#FEB869;" d="M198.3,377.5c-1.4-20.6-10.8-36.1-29.2-46.1c-27.3-14.7-49.5-34.9-66.2-61.1
			c-14.5-22.7-23.3-47.3-26.4-74.2c-3.8-33.1,0.9-64.9,15.5-94.7c24.5-49.8,63.6-82.3,117.6-96.3c15.4-4,31.2-5.7,47.2-4.9
			c-9.4,3.7-18.9,7-28,11.2c-4.4,2-8.4,5.2-12.2,8.3c-12.5,10.2-23,22.2-31.3,36c-13.4,22.6-22,46.9-27,72.7
			c-4.2,21.8-5.2,43.8-3.6,65.8c1.1,16,4.9,31.9,8.2,47.7c4.6,22.4,13.4,43.3,27,61.8c7.7,10.5,17.4,19.4,26.3,29
			c2.7,14.9,5.4,29.8,8.1,44.7C215.6,377.5,207,377.5,198.3,377.5z"/>
		<path style="fill:#FEE7BF;" d="M290.7,196.1c1.4-3.9,3-7.8,4.1-11.8c1.8-6.4,5.2-9,11-7.9c4.7,0.9,7.3,5.8,6.3,11.6
			c-10,55-20,110-30,164.9c-1.5,8.1-2.8,16.3-4.2,24.4c-6,0-12,0-18,0c0.1-1.2,0.1-2.3,0.3-3.5c9.3-51,18.6-101.9,27.9-152.9
			c0.3-1.6-0.2-3.4-0.3-5.1c1.4-6.4,2.8-12.8,4.1-19.1C291.9,196.7,291.1,196.4,290.7,196.1z"/>
		<path style="fill:#FEE7BF;" d="M224.2,377.4c-2.7-14.9-5.4-29.8-8.1-44.7c-2.1-12.4-4.1-24.8-6.3-37.2c-6.4-35.5-13-71-19.4-106.5
			c-0.2-1.3-0.2-2.6-0.2-4c-0.1-4.6,2.1-7.6,6.6-8.6c4.2-0.9,7.9,1.5,9.4,6.2c0.9,3,1.3,6.2,2.1,9.2c0.4,1.5,1.3,2.9,2,4.3
			c-0.3,0.9-1,1.9-0.9,2.7c1.2,5.8,2.5,11.5,3.8,17.3c0.1,1.8,0.1,3.7,0.4,5.4c5.5,30.4,11.1,60.8,16.6,91.1
			c4,21.6,7.9,43.2,11.9,64.8c-3,0.1-6,0.2-9.1,0.3C230.1,377.6,227.2,377.5,224.2,377.4z"/>
		<path style="fill:#FEFEFE;" d="M213.1,216.1c-1.3-5.8-2.6-11.5-3.8-17.3c-0.2-0.8,0.6-1.8,0.9-2.7c10.2,1,18,7.1,25.8,13
			c9,6.7,19.9,6.7,28.9,0c7.8-5.9,15.5-11.9,25.8-13c0.4,0.2,1.2,0.6,1.2,0.7c-1.3,6.4-2.7,12.8-4.1,19.1c-4.1,2.8-8.5,5.2-12.2,8.4
			c-11.6,9.9-34.9,10.3-45.4,2.8C224.5,223.3,218.8,219.8,213.1,216.1z"/>
		<path style="fill:#BDC7DB;" d="M233,377.7c3-0.1,6-0.2,9.1-0.3c5.9,0,11.9,0,17.8,0c6,0,12,0,18,0c8.6,0,17.2,0,25.8,0.1
			c0.1,3.3,0.2,6.5,0.3,9.8c-10.3,1.6-20.5,3.3-30.8,4.9c-13.4,2.1-26.7,4.1-40.1,6.2C233.1,391.5,233,384.6,233,377.7z"/>
		<path style="fill:#95A4B8;" d="M303.9,421.2c4.6,0.1,8,1.9,9.7,6.3c1.8,4.9-0.3,8.6-3.9,11.8c-11.5,1.9-23.1,3.8-34.6,5.6
			c-13.7,2.2-27.4,4.2-41,6.4c-12,2-24,4-36,5.9c-5.6-1-8.6-4.1-8.8-8.9c-0.2-5.4,2.6-8.7,8.7-10.1c1.5-0.3,2.9-0.7,4.4-0.9
			c10.3-1.7,20.5-3.3,30.8-5c1-0.1,2-0.1,3-0.2C258.7,428.5,281.3,424.8,303.9,421.2z"/>
		<path style="fill:#95A4B8;" d="M233.1,398.4c13.4-2.1,26.7-4.1,40.1-6.2c10.3-1.6,20.5-3.3,30.8-4.9c6.5,0.6,9.7,3.4,10.4,8.6
			c0.5,4.6-2.9,8.9-8.5,10.6c-6,0.8-12.1,1.5-18.1,2.4c-18.2,2.8-36.4,5.7-54.6,8.5c-1.6,0.3-3.2,0.6-4.8,0.9
			c-10,1.7-20.1,3.3-30.1,5c-2.9-2.2-6.7-3.9-8.3-6.8c-2.9-5.2,1.2-10.8,8-12.3C209.6,402.4,221.3,400.4,233.1,398.4z"/>
		<path style="fill:#A9B5C9;" d="M198.1,457.3c12-2,24-4,36-5.9c-1.2,10.3,3.4,17,12.6,21.2c6.9,3.2,13.5,7,20.2,10.5
			c-9,0-18.1,0.2-27.1,0c-4.5-0.1-6.4,1.2-5.8,5.8c0.3,2.1,0,4.3-0.1,6.4c-0.3-1.4-1.1-2.9-0.8-4.3c1.1-6-1.8-8.9-7.1-11
			c-5.7-2.2-11-5.5-16.5-8C203,469,199.5,464,198.1,457.3z"/>
		<path style="fill:#A9B5C9;" d="M233.1,398.4c-11.7,2-23.5,3.9-35.2,5.9c0.2-8.9,0.3-17.8,0.5-26.8c8.6,0,17.3-0.1,25.9-0.1
			c2.9,0.1,5.9,0.2,8.8,0.2C233,384.6,233.1,391.5,233.1,398.4z"/>
		<path style="fill:#A9B5C9;" d="M198.2,423.4c10-1.7,20.1-3.3,30.1-5c1.6-0.3,3.2-0.6,4.8-0.9c0,4.9,0,9.9-0.1,14.8
			c-10.3,1.7-20.5,3.3-30.8,5c-1.5,0.2-2.9,0.6-4.4,0.9C198,433.3,198.1,428.3,198.2,423.4z"/>
		<path style="fill:#BDC7DB;" d="M266.9,483.1c-6.7-3.5-13.3-7.3-20.2-10.5c-9.2-4.3-13.8-11-12.6-21.2c13.7-2.1,27.4-4.2,41-6.4
			c11.6-1.8,23.1-3.8,34.6-5.6c-7.5,2.7-6.2,9-6,14.7c0.2,7.1-2.3,12.8-8.6,16.2c-8.6,4.6-17.5,8.6-26.3,12.9
			C268.2,483.1,267.6,483.1,266.9,483.1z"/>
		<path style="fill:#BDC7DB;" d="M233.1,432.3c0-4.9,0-9.9,0.1-14.8c18.2-2.8,36.4-5.7,54.6-8.5c6-0.9,12-1.6,18.1-2.4
			c-0.7,3-1.6,5.9-2,8.9c-0.3,1.9,0.1,3.8,0.1,5.8c-22.6,3.6-45.3,7.3-67.9,10.9C235.1,432.2,234.1,432.2,233.1,432.3z"/>
		<path style="fill:#FECC73;" d="M259.9,377.4c-5.9,0-11.9,0-17.8,0c-4-21.6-8-43.2-11.9-64.8c-5.6-30.4-11.1-60.7-16.6-91.1
			c-0.3-1.8-0.3-3.6-0.4-5.4c5.6,3.7,11.4,7.3,16.9,11.2c10.5,7.4,33.8,7.1,45.4-2.8c3.7-3.2,8.1-5.6,12.2-8.4
			c0.1,1.7,0.6,3.5,0.3,5.1c-9.3,51-18.6,101.9-27.9,152.9C259.9,375.1,259.9,376.3,259.9,377.4z"/>
	</g>
</g>
</svg>
