<?xml version="1.0" encoding="utf-8"?>
<!-- Generator: Adobe Illustrator 22.0.1, SVG Export Plug-In . SVG Version: 6.00 Build 0)  -->
<svg version="1.1" id="Capa_1" xmlns="http://www.w3.org/2000/svg" xmlns:xlink="http://www.w3.org/1999/xlink" x="0px" y="0px"
	 viewBox="0 0 512 512" style="enable-background:new 0 0 512 512;" xml:space="preserve">
<path style="fill:#FFDCCE;" d="M432.3,183.9c-8.9,0-16,7.2-16,16v88.2h32.1v-88.2C448.4,191,441.2,183.9,432.3,183.9z"/>
<path style="fill:#FFD3C1;" d="M440.4,186c-2.4-1.4-5.1-2.2-8-2.2c-8.9,0-16,7.2-16,16v88.2h16v-88.2
	C432.3,194,435.6,188.8,440.4,186z"/>
<path style="fill:#FFDCCE;" d="M400.3,215.9c-8.9,0-16,7.2-16,16v88.2h32.1V232C416.3,223.1,409.1,215.9,400.3,215.9z"/>
<path style="fill:#FFD3C1;" d="M408.3,218.1c-2.4-1.4-5.1-2.2-8-2.2c-8.9,0-16,7.2-16,16v88.2h16V232
	C400.3,226,403.5,220.9,408.3,218.1z"/>
<path style="fill:#FFDCCE;" d="M384.2,272c0-8.9-7.2-16-16-16s-16,7.2-16,16v64.1h32.1V272z"/>
<path style="fill:#FFD3C1;" d="M376.2,258.2c-2.4-1.4-5.1-2.2-8-2.2c-8.9,0-16,7.2-16,16v64.1h16V272
	C368.2,266.1,371.4,260.9,376.2,258.2z"/>
<g>
	<path style="fill:#FFEEE7;" d="M307.8,360l76.5-31.9l96.2-40.1v32.1l-48.1,72.1l-72.1,32.1v80.2h-72.1V389.6
		C288.1,376.7,295.8,365,307.8,360z"/>
	<path style="fill:#FFEEE7;" d="M480.4,296.1v-64.6c0-9.1-7.6-16.4-16.8-16c-8.6,0.4-15.3,7.8-15.3,16.5v64.1"/>
	<path style="fill:#FFEEE7;" d="M384.2,327.8l42.4-43c6.2-6.3,16.4-6.4,22.7-0.2c6.3,6.2,6.4,16.4,0.2,22.7l-42.5,43.2L384.2,327.8z
		"/>
</g>
<g>
	<path style="fill:#FFCBB6;" d="M449.3,284.7c-2-1.9-4.3-3.2-6.7-4c1.6,5.4,0.3,11.5-4,15.8l-42.5,43.2l10.9,10.9l42.5-43.2
		C455.7,301,455.6,290.9,449.3,284.7z"/>
	<polygon style="fill:#FFCBB6;" points="464.4,215.9 464.4,312.1 424.3,376.2 344.2,416.3 344.2,504.5 360.2,504.5 360.2,424.3 
		432.3,392.3 480.4,320.1 480.4,223.9 	"/>
</g>
<path style="fill:#FFDCCE;" d="M79.7,183.9c8.9,0,16,7.2,16,16v88.2H63.6v-88.2C63.6,191,70.8,183.9,79.7,183.9z"/>
<path style="fill:#FFD3C1;" d="M71.6,186c2.4-1.4,5.1-2.2,8-2.2c8.9,0,16,7.2,16,16v88.2h-16v-88.2C79.7,194,76.4,188.8,71.6,186z"
	/>
<path style="fill:#FFDCCE;" d="M111.7,215.9c8.9,0,16,7.2,16,16v88.2H95.7V232C95.7,223.1,102.9,215.9,111.7,215.9z"/>
<path style="fill:#FFD3C1;" d="M103.7,218.1c2.4-1.4,5.1-2.2,8-2.2c8.9,0,16,7.2,16,16v88.2h-16V232
	C111.7,226,108.5,220.9,103.7,218.1z"/>
<path style="fill:#FFDCCE;" d="M127.8,272c0-8.9,7.2-16,16-16s16,7.2,16,16v64.1h-32.1L127.8,272L127.8,272z"/>
<path style="fill:#FFD3C1;" d="M135.8,258.2c2.4-1.4,5.1-2.2,8-2.2c8.9,0,16,7.2,16,16v64.1h-16V272
	C143.8,266.1,140.6,260.9,135.8,258.2z"/>
<g>
	<path style="fill:#FFEEE7;" d="M204.2,360l-76.5-31.9l-96.2-40.1v32.1l48.1,72.1l72.1,32.1v80.2h72.1V389.6
		C223.9,376.7,216.2,365,204.2,360z"/>
	<path style="fill:#FFEEE7;" d="M31.6,296.1v-64.6c0-9.1,7.6-16.4,16.8-16c8.6,0.4,15.3,7.8,15.3,16.5v64.1"/>
	<path style="fill:#FFEEE7;" d="M127.8,327.8l-42.4-43c-6.2-6.3-16.4-6.4-22.7-0.2c-6.3,6.2-6.4,16.4-0.2,22.7l42.5,43.2
		L127.8,327.8z"/>
</g>
<g>
	<path style="fill:#FFCBB6;" d="M62.7,284.7c2-1.9,4.3-3.2,6.7-4c-1.6,5.4-0.3,11.5,4,15.8l42.5,43.2l-10.9,10.9l-42.5-43.2
		C56.3,301,56.4,290.9,62.7,284.7z"/>
	<polygon style="fill:#FFCBB6;" points="47.6,215.9 47.6,312.1 87.7,376.2 167.8,416.3 167.8,504.5 151.8,504.5 151.8,424.3 
		79.7,392.3 31.6,320.1 31.6,223.9 	"/>
</g>
<path style="fill:#FF88AA;" d="M255.5,52.8c-97.2-108-183.6,0-140.4,86.4S255.5,258,255.5,258s97.2-32.4,140.4-118.8
	S352.7-55.2,255.5,52.8z"/>
<path style="fill:#E46B8A;" d="M151.2,139.2C124.3,85.3,147.7,23,192.8,10C126-7.6,81.7,72.3,115.1,139.2
	C158.3,225.6,255.5,258,255.5,258s7-2.3,18-7.4C243.4,236.8,182.8,202.5,151.2,139.2z"/>
</svg>
