<?xml version="1.0" encoding="utf-8"?>
<!-- Generator: Adobe Illustrator 22.0.1, SVG Export Plug-In . SVG Version: 6.00 Build 0)  -->
<svg version="1.1" id="Layer_1" xmlns="http://www.w3.org/2000/svg" xmlns:xlink="http://www.w3.org/1999/xlink" x="0px" y="0px"
	 viewBox="0 0 512 512" style="enable-background:new 0 0 512 512;" xml:space="preserve">
<path style="fill:#89D3E6;" d="M432.3,135.6L256,282.5L90.5,123.6c-39.6,41.2-64,97.2-64,158.9C26.5,409.2,129.2,512,256,512
	s229.5-102.8,229.5-229.5C485.5,226.6,465.5,175.4,432.3,135.6z"/>
<path style="fill:#FF9999;" d="M90.5,123.6L256,282.5V53C190.9,53,132.2,80.1,90.5,123.6z"/>
<path style="fill:#BC88EA;" d="M456.8,82.6L456.8,82.6C414.7,32.1,351.4,0,280.5,0v229.5L456.8,82.6z"/>
<path style="fill:#41C2E0;" d="M309,476.7c-126.8,0-229.5-102.8-229.5-229.5c0-39.1,9.8-75.9,27.1-108.2l-16-15.4
	c-39.6,41.2-64,97.2-64,158.9C26.5,409.2,129.2,512,256,512c58.4,0,111.8-21.9,152.3-57.9C378.2,468.6,344.5,476.7,309,476.7z"/>
<path style="fill:#EF6D65;" d="M156.5,75.7c-24.8,12-47.1,28.2-66,47.9l16.1,15.4C119.4,115,136.3,93.6,156.5,75.7z"/>
</svg>
