<?xml version="1.0" encoding="utf-8"?>
<!-- Generator: Adobe Illustrator 22.0.1, SVG Export Plug-In . SVG Version: 6.00 Build 0)  -->
<svg version="1.1" id="Layer_1" xmlns="http://www.w3.org/2000/svg" xmlns:xlink="http://www.w3.org/1999/xlink" x="0px" y="0px"
	 viewBox="0 0 1669 439" style="enable-background:new 0 0 1669 439;" xml:space="preserve">
<style type="text/css">
	.st0{enable-background:new    ;}
	.st1{fill:#FFFFFF;}
	.st2{fill:#E76A66;}
</style>
<g class="st0">
	<path class="st1" d="M33.4,55.8l22.7,73.8l26.4-73.8h25.5l26.1,73.8L157,55.8h32.9l-40.4,112.3h-28.9L95.4,96.5L71,168.2H40.8
		L0.7,55.8H33.4z"/>
	<path class="st1" d="M214.3,70.8c11.6-11.4,25.6-17.1,42.2-17.1c10.9,0,21,2.6,30.2,7.8s16.4,12.3,21.7,21.3
		c5.3,9,7.9,18.9,7.9,29.6c0,10.6-2.6,20.5-7.9,29.5c-5.3,9-12.5,16.2-21.7,21.5s-19.3,7.9-30.2,7.9c-10.9,0-20.9-2.6-30-7.9
		s-16.4-12.4-21.6-21.5c-5.3-9-7.9-18.9-7.9-29.5C197,96.1,202.7,82.2,214.3,70.8z M234.6,134.2c6.1,6.1,13.4,9.2,21.9,9.2
		c8.6,0,16-3.1,22-9.2c6.1-6.1,9.1-13.4,9.1-21.8c0-8.3-3-15.5-9.1-21.6c-6.1-6.1-13.4-9.2-22-9.2c-8.5,0-15.8,3.1-21.9,9.2
		c-6.1,6.1-9.2,13.3-9.2,21.6C225.5,120.8,228.5,128,234.6,134.2z"/>
	<path class="st1" d="M342.3,55.8h29.1v8.3c3.2-2.3,5.7-4,7.6-5.2c1.9-1.2,4.8-2.3,8.7-3.5c3.9-1.2,8.1-1.7,12.8-1.7
		c16.1,0,27.9,5.6,35.6,16.7c4.9-5.9,10.7-10.2,17.4-12.8c6.7-2.6,13.4-3.9,20.1-3.9c13.2,0,23.9,4.1,31.9,12.2
		c8,8.2,12.1,20.6,12.1,37.4v64.8h-29.1v-60c0-5.5-0.6-10-1.7-13.7c-1.1-3.7-2.7-6.4-4.8-8.2c-2.1-1.8-4.2-3-6.4-3.6
		c-2.2-0.7-4.8-1-7.7-1c-15.6,0-23.4,8.7-23.4,26.1v60.5h-29.1v-60c0-5.5-0.6-10-1.7-13.7c-1.1-3.7-2.7-6.4-4.8-8.2
		c-2.1-1.8-4.2-3-6.4-3.6c-2.2-0.7-4.8-1-7.7-1c-15.5,0-23.3,8.7-23.3,26.1v60.5h-29.1V55.8z"/>
	<path class="st1" d="M545.1,90.4c2.7-7.2,6.6-13.5,11.5-18.9s11.1-9.7,18.4-12.9c7.3-3.2,15.4-4.8,24.1-4.8
		c10.8,0,20.5,2.7,29.2,8.1c8.7,5.4,15.4,12.5,20.2,21.4c4.8,8.9,7.2,18.6,7.2,29.1c0,3.3-0.2,6.4-0.7,9.2h-85.7
		c1.7,7.1,5.3,12.7,10.8,17c5.5,4.2,12.3,6.3,20.5,6.3c5.4,0,10.5-1,15.5-3.1c4.9-2.1,9-5.2,12.1-9.4l19.9,15.8
		c-5.1,7.2-11.8,12.8-20.2,16.9c-8.4,4.1-17.4,6.1-27,6.1c-11.1,0-21.2-2.5-30.4-7.6c-9.2-5.1-16.4-12.1-21.6-21
		c-5.2-8.9-7.8-18.8-7.8-29.6C541,105.2,542.4,97.6,545.1,90.4z M626.4,100.3c-0.8-5.7-3.9-10.5-9.1-14.3
		c-5.2-3.8-11.4-5.8-18.4-5.8c-6.7,0-12.6,1.8-17.7,5.5s-8.7,8.5-10.9,14.6H626.4z"/>
	<path class="st1" d="M681.6,55.8h29.1v8.3c2.8-2.2,5.3-3.8,7.2-5c2-1.2,5-2.4,9.1-3.6c4.1-1.2,8.5-1.8,13.3-1.8
		c6.3,0,12.2,1,17.5,2.9c5.4,1.9,10.2,4.8,14.5,8.7s7.7,9,10.1,15.5c2.4,6.5,3.6,14,3.6,22.6v64.8H757v-60
		c0-17.7-7.7-26.5-23.2-26.5c-15.4,0-23.1,8.7-23.1,26.1v60.5h-29.1V55.8z"/>
	<path class="st1" d="M817.8,87.6h71.5v27.4h-71.5V87.6z"/>
	<path class="st1" d="M931.5,70.8c11.6-11.4,25.6-17.1,42.2-17.1c10.5,0,20.1,2.4,29,7.2c8.9,4.8,16,11.3,21.4,19.5l-24.8,14.4
		c-2.8-4.1-6.5-7.3-11-9.7c-4.5-2.4-9.3-3.6-14.5-3.6c-8.5,0-15.8,3.1-21.9,9.2c-6.1,6.1-9.2,13.3-9.2,21.6c0,8.4,3.1,15.6,9.2,21.8
		c6.1,6.1,13.4,9.2,21.9,9.2c5.5,0,10.5-1.3,15.1-3.9s8.3-6.1,11.1-10.6l24.6,14.7c-5.3,8.4-12.5,15.1-21.5,20.1s-18.8,7.6-29.3,7.6
		c-10.9,0-20.9-2.6-30-7.9c-9.2-5.3-16.4-12.4-21.6-21.5c-5.3-9-7.9-18.9-7.9-29.5C914.1,96.1,919.9,82.2,931.5,70.8z"/>
	<path class="st1" d="M1042.8,90.4c2.7-7.2,6.6-13.5,11.5-18.9s11.1-9.7,18.4-12.9c7.3-3.2,15.4-4.8,24.1-4.8
		c10.8,0,20.5,2.7,29.2,8.1c8.7,5.4,15.4,12.5,20.2,21.4c4.8,8.9,7.2,18.6,7.2,29.1c0,3.3-0.2,6.4-0.7,9.2h-85.7
		c1.7,7.1,5.3,12.7,10.8,17c5.5,4.2,12.3,6.3,20.5,6.3c5.4,0,10.5-1,15.5-3.1c4.9-2.1,9-5.2,12.1-9.4l19.9,15.8
		c-5.1,7.2-11.8,12.8-20.2,16.9c-8.4,4.1-17.4,6.1-27,6.1c-11.1,0-21.2-2.5-30.4-7.6c-9.2-5.1-16.4-12.1-21.6-21
		c-5.2-8.9-7.8-18.8-7.8-29.6C1038.7,105.2,1040,97.6,1042.8,90.4z M1124,100.3c-0.8-5.7-3.9-10.5-9.1-14.3
		c-5.2-3.8-11.4-5.8-18.4-5.8c-6.7,0-12.6,1.8-17.7,5.5s-8.7,8.5-10.9,14.6H1124z"/>
	<path class="st1" d="M1179.3,55.8h29.1v8.3c2.8-2.2,5.3-3.8,7.2-5c2-1.2,5-2.4,9.1-3.6c4.1-1.2,8.5-1.8,13.3-1.8
		c6.3,0,12.2,1,17.5,2.9c5.4,1.9,10.2,4.8,14.5,8.7s7.7,9,10.1,15.5c2.4,6.5,3.6,14,3.6,22.6v64.8h-29.1v-60
		c0-17.7-7.7-26.5-23.2-26.5c-15.4,0-23.1,8.7-23.1,26.1v60.5h-29.1V55.8z"/>
	<path class="st1" d="M1301.4,55.8h17.8V17.7h29v38.1h29.9v27.9h-29.9v44.9c0,10.1,4.2,15.1,12.6,15.1c2.2,0,4.4-0.1,6.8-0.3
		c2.3-0.2,4.2-0.4,5.5-0.5l2-0.3v25.7c-5.7,1.9-13.2,2.9-22.5,2.9c-10.7,0-18.9-3.3-24.6-9.8c-5.7-6.5-8.6-15.4-8.6-26.7v-51h-17.8
		V55.8z"/>
	<path class="st1" d="M1407.5,55.8h29.1v8.3c5.4-4,11.2-6.7,17.4-8.2s14.8-2.2,25.8-2.2v27.8c-7.3,0-13.6,0.4-18.8,1.3
		c-5.2,0.8-9.4,2-12.5,3.5s-5.6,3.6-7.4,6.2c-1.8,2.6-3,5.4-3.6,8.3c-0.6,2.9-0.9,6.4-0.9,10.6v56.8h-29.1V55.8z"/>
	<path class="st1" d="M1505.1,5.8c3.5-3.5,7.9-5.3,13.2-5.3c5.2,0,9.5,1.7,12.9,5.2c3.5,3.5,5.2,7.8,5.2,13s-1.7,9.6-5.2,13.1
		s-7.8,5.3-12.9,5.3c-5.2,0-9.6-1.8-13.2-5.3s-5.3-7.9-5.3-13C1499.8,13.6,1501.6,9.3,1505.1,5.8z M1503.6,55.8h29.1v112.3h-29.1
		V55.8z"/>
	<path class="st1" d="M1576.3,70.8c11.6-11.4,25.6-17.1,42.2-17.1c10.5,0,20.1,2.4,29,7.2c8.9,4.8,16,11.3,21.4,19.5L1644,94.9
		c-2.8-4.1-6.5-7.3-11-9.7c-4.5-2.4-9.3-3.6-14.5-3.6c-8.5,0-15.8,3.1-21.9,9.2c-6.1,6.1-9.2,13.3-9.2,21.6c0,8.4,3.1,15.6,9.2,21.8
		c6.1,6.1,13.4,9.2,21.9,9.2c5.5,0,10.5-1.3,15.1-3.9s8.3-6.1,11.1-10.6l24.6,14.7c-5.3,8.4-12.5,15.1-21.5,20.1s-18.8,7.6-29.3,7.6
		c-10.9,0-20.9-2.6-30-7.9c-9.2-5.3-16.4-12.4-21.6-21.5c-5.3-9-7.9-18.9-7.9-29.5C1558.9,96.1,1564.7,82.2,1576.3,70.8z"/>
</g>
<g class="st0">
	<path class="st1" d="M66,324.4h67.2v-69.1h46.5v178.9h-46.5v-73.8H66v73.8H19.5V255.4H66V324.4z"/>
	<path class="st1" d="M326.8,403.2h-66.4l-10.7,31.1h-49.6l68.1-178.9h50.8L387,434.3h-49.6L326.8,403.2z M314.4,367.9l-20.9-59.6
		l-20.9,59.6H314.4z"/>
	<path class="st1" d="M529.7,315.2c-10.8-13.1-24-19.7-39.9-19.7c-7,0-13.4,1.3-19.3,3.8c-5.9,2.5-11,6-15.3,10.3
		c-4.3,4.4-7.6,9.5-10.1,15.5c-2.5,6-3.7,12.5-3.7,19.5c0,7.1,1.2,13.7,3.7,19.7c2.5,6,5.9,11.2,10.2,15.7
		c4.3,4.4,9.5,7.9,15.3,10.4c5.9,2.5,12.2,3.8,19,3.8c14.9,0,28.2-6.3,40.1-19v55.1l-4.7,1.7c-7.1,2.5-13.8,4.4-19.9,5.6
		c-6.2,1.2-12.3,1.8-18.3,1.8c-12.3,0-24.2-2.3-35.5-7c-11.3-4.7-21.3-11.2-29.9-19.7c-8.6-8.5-15.5-18.5-20.8-30.1
		c-5.2-11.6-7.8-24.3-7.8-38.1s2.6-26.4,7.7-37.8c5.1-11.5,12-21.4,20.6-29.7c8.6-8.3,18.6-14.8,30-19.5c11.4-4.7,23.3-7,35.8-7
		c7.1,0,14.1,0.8,21,2.3c6.9,1.5,14.1,3.8,21.7,7V315.2z"/>
	<path class="st1" d="M613.2,329.2l56.7-73.8h57.4l-71,84.7l77.6,94.2h-60.3l-60.5-77.6v77.6h-46.5V255.4h46.5V329.2z"/>
</g>
<g class="st0">
	<path class="st2" d="M864.2,403.2h-66.4l-10.7,31.1h-49.6l68.1-178.9h50.8l68.1,178.9h-49.6L864.2,403.2z M851.9,367.9L831,308.3
		l-20.9,59.6H851.9z"/>
	<path class="st2" d="M1005,294.8v139.5h-46.5V294.8h-38.2v-39.4h122.9v39.4H1005z"/>
	<path class="st2" d="M1110.3,324.4h67.2v-69.1h46.5v178.9h-46.5v-73.8h-67.2v73.8h-46.5V255.4h46.5V324.4z"/>
	<path class="st2" d="M1253.4,344.8c0-13.3,2.5-25.7,7.4-37.1c4.9-11.5,11.7-21.5,20.4-30c8.7-8.5,19.1-15.2,31.2-20.1
		c12.1-4.8,25.4-7.2,40-7.2c14.4,0,27.7,2.4,39.9,7.2c12.2,4.8,22.7,11.5,31.4,20.1s15.6,18.6,20.5,30c4.9,11.5,7.4,23.8,7.4,37.1
		s-2.5,25.7-7.4,37.1c-4.9,11.5-11.7,21.5-20.5,30c-8.8,8.5-19.3,15.2-31.4,20.1c-12.2,4.8-25.5,7.2-39.9,7.2
		c-14.6,0-27.9-2.4-40-7.2c-12.1-4.8-22.5-11.5-31.2-20.1c-8.7-8.5-15.5-18.5-20.4-30C1255.9,370.5,1253.4,358.1,1253.4,344.8z
		 M1302.1,344.8c0,7.1,1.3,13.7,4,19.7c2.7,6,6.3,11.2,10.9,15.7c4.6,4.4,9.9,7.9,16,10.3c6.1,2.5,12.5,3.7,19.3,3.7
		c6.8,0,13.2-1.2,19.3-3.7c6.1-2.5,11.5-5.9,16.1-10.3c4.7-4.4,8.3-9.6,11-15.7c2.7-6,4-12.6,4-19.7s-1.3-13.7-4-19.7
		c-2.7-6-6.4-11.2-11-15.7c-4.7-4.4-10-7.9-16.1-10.3c-6.1-2.5-12.5-3.7-19.3-3.7c-6.8,0-13.3,1.2-19.3,3.7
		c-6.1,2.5-11.4,5.9-16,10.3c-4.6,4.4-8.2,9.7-10.9,15.7C1303.4,331.2,1302.1,337.7,1302.1,344.8z"/>
	<path class="st2" d="M1481,434.3V255.4h46.5l85.9,109.4V255.4h46.3v178.9h-46.3l-85.9-109.4v109.4H1481z"/>
</g>
</svg>
