<?xml version="1.0" encoding="utf-8"?>
<!-- Generator: Adobe Illustrator 22.0.1, SVG Export Plug-In . SVG Version: 6.00 Build 0)  -->
<svg version="1.1" id="Layer_1" xmlns="http://www.w3.org/2000/svg" xmlns:xlink="http://www.w3.org/1999/xlink" x="0px" y="0px"
	 viewBox="0 0 480 61" style="enable-background:new 0 0 480 61;" xml:space="preserve">
<path class="logo-fill" style="fill:#FFFFFF;" d="M1.7,56.3c-0.7-0.7-1-1.5-1-2.5V5.2c0-1,0.3-1.9,1-2.6C2.4,2,3.3,1.6,4.3,1.6c1,0,1.9,0.4,2.6,1.1
	c0.7,0.7,1.1,1.6,1.1,2.6v20.9h29.8V5.2c0-1,0.3-1.9,1-2.6c0.7-0.7,1.5-1.1,2.5-1.1c1,0,1.9,0.4,2.6,1.1c0.7,0.7,1.1,1.6,1.1,2.6
	v48.6c0,1-0.4,1.8-1.1,2.5c-0.7,0.7-1.6,1-2.6,1c-1,0-1.8-0.3-2.5-1c-0.7-0.7-1-1.5-1-2.5V32.9H7.9v20.9c0,1-0.4,1.8-1.1,2.5
	c-0.7,0.7-1.6,1-2.6,1C3.3,57.4,2.4,57,1.7,56.3z"/>
<path class="logo-fill" style="fill:#FFFFFF;" d="M88.8,56.3c-0.7-0.7-1-1.5-1-2.5c0-0.4,0.1-0.9,0.4-1.6l20.1-47.4c0.4-0.9,1-1.7,1.8-2.3
	c0.8-0.6,1.7-0.9,2.8-0.9h0.8c1.1,0,2,0.3,2.8,0.9c0.8,0.6,1.4,1.4,1.8,2.3l20.1,47.4c0.3,0.6,0.4,1.2,0.4,1.6c0,1-0.3,1.8-1,2.5
	c-0.7,0.7-1.5,1-2.6,1c-0.7,0-1.4-0.2-2-0.6c-0.6-0.4-1.1-0.9-1.4-1.6l-5.1-12.3H99.8l-5.1,12.3c-0.3,0.7-0.8,1.2-1.4,1.6
	c-0.6,0.4-1.3,0.6-2,0.6C90.3,57.4,89.4,57,88.8,56.3z M102.6,36.3h21.3l-10.6-25.6L102.6,36.3z"/>
<path class="logo-fill" style="fill:#FFFFFF;" d="M190.6,54.3c-4.2-2.3-7.5-5.6-9.8-9.8c-2.4-4.3-3.6-9.3-3.6-15c0-5.7,1.2-10.7,3.6-15
	c2.4-4.3,5.7-7.6,9.8-9.8c4.2-2.3,8.9-3.4,14.1-3.4c3.6,0,6.8,0.4,9.6,1.3c2.8,0.8,5.6,2,8.4,3.6c1.2,0.6,1.7,1.6,1.7,3
	c0,0.8-0.3,1.5-0.9,2.1c-0.6,0.6-1.3,0.9-2.3,0.9c-0.5,0-1-0.1-1.4-0.3c-2.3-1.2-4.6-2.1-6.8-2.8c-2.2-0.6-4.8-0.9-7.6-0.9
	c-4.5,0-8.4,0.9-11.5,2.8c-3.2,1.9-5.6,4.4-7.2,7.6c-1.6,3.2-2.4,6.9-2.4,11s0.8,7.8,2.4,11c1.6,3.2,4,5.8,7.2,7.6
	c3.2,1.9,7,2.8,11.5,2.8c2.9,0,5.4-0.3,7.6-0.9c2.2-0.6,4.5-1.5,6.8-2.8c0.4-0.2,0.9-0.3,1.4-0.3c0.9,0,1.7,0.3,2.3,0.9
	c0.6,0.6,0.9,1.3,0.9,2.1c0,1.4-0.6,2.4-1.7,3c-2.8,1.6-5.6,2.8-8.4,3.6c-2.8,0.8-6,1.3-9.6,1.3C199.5,57.8,194.8,56.6,190.6,54.3z"
	/>
<path class="logo-fill" style="fill:#FFFFFF;" d="M267.6,56.3c-0.7-0.7-1-1.5-1-2.5V5.2c0-1,0.3-1.9,1-2.6c0.7-0.7,1.5-1.1,2.5-1.1
	c1,0,1.9,0.4,2.6,1.1c0.7,0.7,1.1,1.6,1.1,2.6v25l26.9-27.4c0.7-0.8,1.6-1.3,2.7-1.3c0.9,0,1.7,0.3,2.3,0.9c0.7,0.6,1,1.4,1,2.2
	c0,1.1-0.3,1.9-0.9,2.4l-18.2,18.1l20.9,26.3c0.6,0.7,0.9,1.5,0.9,2.3c0.1,0.9-0.3,1.8-0.9,2.4c-0.7,0.7-1.5,1-2.5,1
	c-1.2,0-2.2-0.5-2.8-1.4L282.7,30l-9,9.1v14.7c0,1-0.4,1.8-1.1,2.5c-0.7,0.7-1.6,1-2.6,1C269.1,57.4,268.2,57,267.6,56.3z"/>
<path class="logo-fill" style="fill:#FFFFFF;" d="M347.6,56.4c-0.7-0.7-1-1.4-1-2.3c0-0.8,0.2-1.6,0.7-2.2l18.2-22.4l-18-22.2
	c-0.5-0.6-0.7-1.4-0.7-2.2c0-1,0.3-1.8,1-2.5c0.7-0.7,1.5-1,2.5-1c0.6,0,1.1,0.1,1.7,0.4c0.5,0.3,0.9,0.6,1.3,1l16.6,21.1l16.6-21.3
	c0.6-0.8,1.4-1.3,2.6-1.3c0.9,0,1.8,0.3,2.4,1c0.7,0.7,1,1.5,1,2.4c0,0.7-0.2,1.4-0.6,2l-18.2,22.4l18.2,22.4c0.5,0.5,0.7,1.2,0.7,2
	c0,1-0.3,1.8-1,2.5c-0.7,0.7-1.5,1-2.6,1c-1.2,0-2.1-0.5-2.8-1.5l-16.9-21.2l-16.6,21.3c-0.8,0.9-1.7,1.4-2.8,1.4
	C349,57.4,348.3,57,347.6,56.4z"/>
<path class="logo-fill" style="fill:#FFFFFF;" d="M434,56.4c-0.7-0.7-1-1.4-1-2.3c0-0.8,0.2-1.6,0.7-2.2l18.2-22.4l-18-22.2c-0.5-0.6-0.7-1.4-0.7-2.2
	c0-1,0.3-1.8,1-2.5c0.7-0.7,1.5-1,2.5-1c0.6,0,1.1,0.1,1.7,0.4c0.5,0.3,0.9,0.6,1.3,1l16.6,21.1l16.6-21.3c0.6-0.8,1.4-1.3,2.6-1.3
	c0.9,0,1.8,0.3,2.4,1c0.7,0.7,1,1.5,1,2.4c0,0.7-0.2,1.4-0.6,2L460,29.4l18.2,22.4c0.5,0.5,0.7,1.2,0.7,2c0,1-0.3,1.8-1,2.5
	c-0.7,0.7-1.5,1-2.6,1c-1.2,0-2.1-0.5-2.8-1.5l-16.9-21.2l-16.6,21.3c-0.8,0.9-1.7,1.4-2.8,1.4C435.4,57.4,434.7,57,434,56.4z"/>
</svg>
